<?xml version="1.0" standalone="no"?>
<svg xmlns:xlink="http://www.w3.org/1999/xlink" id="wave" style="transform:rotate(180deg); transition: 0.3s" viewBox="0 0 1440 100" version="1.1" xmlns="http://www.w3.org/2000/svg"><defs><linearGradient id="sw-gradient-0" x1="0" x2="0" y1="1" y2="0"><stop stop-color="rgba(255, 249, 234, 1)" offset="0%"/><stop stop-color="rgba(255, 249, 234, 1)" offset="100%"/></linearGradient></defs><path style="transform:translate(0, 0px); opacity:1" fill="url(#sw-gradient-0)" d="M0,0L26.7,1.7C53.3,3,107,7,160,16.7C213.3,27,267,43,320,46.7C373.3,50,427,40,480,35C533.3,30,587,30,640,28.3C693.3,27,747,23,800,25C853.3,27,907,33,960,40C1013.3,47,1067,53,1120,50C1173.3,47,1227,33,1280,38.3C1333.3,43,1387,67,1440,68.3C1493.3,70,1547,50,1600,36.7C1653.3,23,1707,17,1760,21.7C1813.3,27,1867,43,1920,43.3C1973.3,43,2027,27,2080,16.7C2133.3,7,2187,3,2240,15C2293.3,27,2347,53,2400,63.3C2453.3,73,2507,67,2560,66.7C2613.3,67,2667,73,2720,71.7C2773.3,70,2827,60,2880,61.7C2933.3,63,2987,77,3040,68.3C3093.3,60,3147,30,3200,28.3C3253.3,27,3307,53,3360,60C3413.3,67,3467,53,3520,43.3C3573.3,33,3627,27,3680,30C3733.3,33,3787,47,3813,53.3L3840,60L3840,100L3813.3,100C3786.7,100,3733,100,3680,100C3626.7,100,3573,100,3520,100C3466.7,100,3413,100,3360,100C3306.7,100,3253,100,3200,100C3146.7,100,3093,100,3040,100C2986.7,100,2933,100,2880,100C2826.7,100,2773,100,2720,100C2666.7,100,2613,100,2560,100C2506.7,100,2453,100,2400,100C2346.7,100,2293,100,2240,100C2186.7,100,2133,100,2080,100C2026.7,100,1973,100,1920,100C1866.7,100,1813,100,1760,100C1706.7,100,1653,100,1600,100C1546.7,100,1493,100,1440,100C1386.7,100,1333,100,1280,100C1226.7,100,1173,100,1120,100C1066.7,100,1013,100,960,100C906.7,100,853,100,800,100C746.7,100,693,100,640,100C586.7,100,533,100,480,100C426.7,100,373,100,320,100C266.7,100,213,100,160,100C106.7,100,53,100,27,100L0,100Z"/></svg>